Coordinates
version=1
nRows=22
nColumns=18
inDegrees=yes

Units are S.I. units (second, meters, Newtons, ...)
If the header above contains a line with 'inDegrees', this indicates whether rotational values are in degrees (yes) or radians (no).

endheader
time	ground_thorax_rot_x	ground_thorax_rot_y	ground_thorax_rot_z	ground_thorax_tx	ground_thorax_ty	ground_thorax_tz	clav_prot	clav_elev	scapula_abduction	scapula_elevation	scapula_upward_rot	scapula_winging	plane_elv	shoulder_elv	axial_rot	elbow_flexion	pro_sup
      5.80000000	      3.01009805	     -1.54891750	     -8.53672886	     -0.00475845	      0.00439851	      0.00010744	    -22.48479530	     -3.36456020	    -12.48798354	     -3.35173292	     13.16640401	      5.06326569	     -8.72388017	     18.08685505	     37.73072714	      0.00000000	     34.32000000
      5.81000000	      3.06956076	     -1.63652001	     -8.50503774	     -0.00479099	      0.00439574	      0.00037104	    -22.48614432	     -3.25632926	    -12.45691910	     -3.29734827	     13.27382010	      5.00427199	     -9.83289953	     18.37907846	     37.83263301	      0.00000000	     34.32000000
      5.82000000	      3.17064096	     -1.74820203	     -8.56235962	     -0.00480023	      0.00429890	      0.00065329	    -22.50488786	     -3.13670932	    -12.50939388	     -3.21260950	     13.29534951	      4.96530918	    -10.31565752	     18.69470935	     37.91741844	      0.00000000	     34.32000000
      5.83000000	      3.15507192	     -1.88872168	     -8.69831942	     -0.00472382	      0.00398593	      0.00088497	    -22.53142430	     -3.06122643	    -12.60062504	     -3.14532854	     13.25336512	      4.95599906	    -10.39394670	     18.75692957	     37.92369067	      0.00000000	     34.32000000
      5.84000000	      3.11419861	     -1.82145829	     -8.42210115	     -0.00483858	      0.00446153	      0.00071479	    -22.44906314	     -3.20369962	    -12.26442305	     -3.31905399	     13.51719743	      4.92441773	    -13.96931201	     18.37574551	     43.16144407	      0.00000000	     34.32000000
      5.85000000	      3.15159203	     -1.91418420	     -8.54700831	     -0.00466189	      0.00423246	      0.00082545	    -22.45862590	     -3.15355704	    -12.33769606	     -3.26190981	     13.44372905	      4.92961105	    -14.03541104	     18.40378277	     43.16587775	      0.00000000	     34.32000000
      5.86000000	      3.10705025	     -1.54644512	     -8.41627735	     -0.00480117	      0.00451180	      0.00053868	    -22.66964864	     -3.15943419	    -12.61440975	     -3.31859830	     13.59374623	      4.89978018	    -16.39304172	     18.00062049	     47.00666080	      0.00000000	     34.32000000
      5.87000000	      3.10868608	     -1.65225867	     -8.54326251	     -0.00461279	      0.00450242	      0.00048581	    -22.67770948	     -3.09256716	    -12.69107126	     -3.24800373	     13.51803552	      4.90071402	    -16.45211051	     18.00816767	     47.00795482	      0.00000000	     34.32000000
      5.88000000	      3.12489407	     -1.77332463	     -8.68342239	     -0.00446997	      0.00436225	      0.00050689	    -22.68474171	     -3.01793718	    -12.78304057	     -3.16466392	     13.41687979	      4.90629310	    -16.53545784	     18.00912320	     47.01233178	      0.00000000	     34.32000000
      5.89000000	      3.07471941	     -1.45589121	     -8.37838163	     -0.00480692	      0.00460500	      0.00039860	    -22.84603950	     -2.99373258	    -12.93512560	     -3.21627788	     13.64593202	      4.84425693	    -20.31029552	     17.30974538	     53.97577756	      0.00000000	     34.32000000
      5.90000000	      3.22004157	     -1.56727440	     -8.53300924	     -0.00467161	      0.00432385	      0.00057792	    -22.84426804	     -2.97263616	    -13.02320022	     -3.16175658	     13.50061006	      4.87627785	    -20.44874975	     17.43523485	     53.98744728	      0.00000000	     34.32000000
      5.91000000	      3.39461023	     -1.59412577	     -8.63548648	     -0.00460761	      0.00422545	      0.00066599	    -22.82406453	     -3.02207625	    -13.10430296	     -3.13975970	     13.27884430	      4.94764633	    -20.76665242	     17.72688850	     54.03758707	      0.00000000	     34.32000000
      5.92000000	      3.14536433	     -1.48138199	     -8.43955791	     -0.00469735	      0.00449334	      0.00038700	    -22.77566632	     -3.38255111	    -12.97324314	     -3.38955745	     13.19109356	      5.07223064	    -23.87620593	     17.65752405	     57.04519087	      0.00000000	     34.32000000
      5.93000000	      3.20113331	     -1.59047415	     -8.56855586	     -0.00452462	      0.00429093	      0.00043858	    -22.78493700	     -3.33675819	    -13.06481846	     -3.32634251	     13.08262215	      5.08733476	    -23.95299778	     17.70239708	     57.05413726	      0.00000000	     34.32000000
      5.94000000	      3.16337530	     -1.22450270	     -8.45056781	     -0.00468132	      0.00447527	      0.00028453	    -23.07560677	     -3.45576999	    -13.56692085	     -3.42112189	     13.02952261	      5.14318839	    -25.93831612	     17.59022914	     60.55831374	      0.00000000	     34.32000000
      5.95000000	      3.23067774	     -1.34288317	     -8.56994135	     -0.00452946	      0.00422401	      0.00042484	    -23.08731478	     -3.41462554	    -13.65068721	     -3.36638242	     12.93925473	      5.15472061	    -26.00858215	     17.64168947	     60.55233851	      0.00000000	     34.32000000
      5.96000000	      3.18913596	     -1.15115219	     -8.45335290	     -0.00466146	      0.00442082	      0.00018420	    -23.13979651	     -3.55210804	    -13.86353820	     -3.40186663	     12.66410280	      5.26727585	    -26.93393635	     17.99011186	     60.50100300	      0.00000000	     34.32000000
      5.97000000	      3.22520497	     -1.24360511	     -8.55435580	     -0.00456131	      0.00438603	      0.00023305	    -23.14240314	     -3.51197891	    -13.92477977	     -3.35027156	     12.58474576	      5.27562542	    -26.99880732	     17.99228394	     60.49565965	      0.00000000	     34.32000000
      5.98000000	      3.07388866	     -1.22865568	     -8.53051905	     -0.00458651	      0.00441995	      0.00009192	    -23.13746156	     -3.62904897	    -13.85745541	     -3.45215425	     12.63184783	      5.29834902	    -28.49583303	     17.98531103	     60.68050751	      0.00000000	     34.32000000
      5.99000000	      3.24825355	     -1.29260389	     -8.58342439	     -0.00452064	      0.00434842	      0.00034710	    -23.16167338	     -3.59508014	    -13.92317005	     -3.42077461	     12.60628251	      5.29531309	    -28.63077892	     18.31032464	     60.71977639	      0.00000000	     34.32000000
      6.00000000	      3.43091730	     -1.39659561	     -8.61389721	     -0.00442860	      0.00422322	      0.00079363	    -23.23090940	     -3.59594691	    -14.02309936	     -3.43471391	     12.64018624	      5.28805393	    -28.77298139	     18.71304068	     60.72136688	      0.00000000	     34.32000000
      6.01000000	      3.50263870	     -1.11852970	     -8.42601642	     -0.00466575	      0.00427741	      0.00074554	    -23.34300621	     -3.58195690	    -14.28167243	     -3.40262870	     12.53415676	      5.31291439	    -29.54042057	     19.28411362	     60.48017104	      0.00000000	     34.32000000
